<svg xmlns="http://www.w3.org/2000/svg" width="800" height="800" viewBox="0 0 800 800">
  <defs>
    <linearGradient id="bg" x1="0" y1="0" x2="1" y2="1">
      <stop offset="0" stop-color="#e0bd80"/>
      <stop offset="0.5" stop-color="#c79a52"/>
      <stop offset="1" stop-color="#9c7236"/>
    </linearGradient>
    <radialGradient id="koguchi" cx="46%" cy="46%" r="70%">
      <stop offset="0" stop-color="#e0bd80"/>
      <stop offset="1" stop-color="#9c7236"/>
    </radialGradient>
  </defs>
  <rect width="800" height="800" fill="url(#bg)"/>
  
  <path d="M 57 0 C 83 264, 31 528, 57 800" fill="none" stroke="#9c7236" stroke-width="1.6" stroke-opacity="0.22" stroke-linecap="round"/><path d="M 171 0 C 207 264, 135 528, 171 800" fill="none" stroke="#9c7236" stroke-width="2.8" stroke-opacity="0.28" stroke-linecap="round"/><path d="M 286 0 C 332 264, 240 528, 286 800" fill="none" stroke="#9c7236" stroke-width="1.6" stroke-opacity="0.33999999999999997" stroke-linecap="round"/><path d="M 400 0 C 426 264, 374 528, 400 800" fill="none" stroke="#9c7236" stroke-width="2.8" stroke-opacity="0.22" stroke-linecap="round"/><path d="M 514 0 C 550 264, 478 528, 514 800" fill="none" stroke="#9c7236" stroke-width="1.6" stroke-opacity="0.28" stroke-linecap="round"/><path d="M 629 0 C 675 264, 583 528, 629 800" fill="none" stroke="#9c7236" stroke-width="2.8" stroke-opacity="0.33999999999999997" stroke-linecap="round"/><path d="M 743 0 C 769 264, 717 528, 743 800" fill="none" stroke="#9c7236" stroke-width="1.6" stroke-opacity="0.22" stroke-linecap="round"/>
  
</svg>